<svg width="25" height="25" viewBox="0 0 25 25" fill="none" xmlns="http://www.w3.org/2000/svg">
    <path fill-rule="evenodd" clip-rule="evenodd" d="M16.6667 2.08333H16.4885C16.0583 0.870833 14.9 0 13.5417 0H11.4583C10.1 0 8.94167 0.870833 8.51146 2.08333H8.33333C5.46146 2.08333 3.125 4.41979 3.125 7.29167V19.7917C3.125 22.6635 5.46146 25 8.33333 25H16.6667C19.5385 25 21.875 22.6635 21.875 19.7917V7.29167C21.875 4.41979 19.5385 2.08333 16.6667 2.08333ZM16.0645 17.7083V10.7422H9.5459C8.9709 10.7422 8.93555 17.7083 8.93555 17.7083C8.93555 18.1663 13.093 17.8948 15.0759 17.7653C15.5827 17.7322 15.9474 17.7083 16.0645 17.7083Z" fill="white"/>
    <path d="M12.5 7.12891C8.4552 7.12891 5.17578 10.4083 5.17578 14.4531C5.17578 18.4979 8.4552 21.7773 12.5 21.7773C16.5448 21.7773 19.8242 18.4979 19.8242 14.4531C19.8242 10.4083 16.5448 7.12891 12.5 7.12891ZM13.363 14.4531C13.363 14.4531 15.2789 16.369 15.3729 16.463C15.6116 16.7017 15.6116 17.088 15.3729 17.3261C15.1343 17.5647 14.7479 17.5647 14.5099 17.3261C14.4159 17.2327 12.5 15.3162 12.5 15.3162C12.5 15.3162 10.5841 17.2321 10.4901 17.3261C10.2515 17.5647 9.86511 17.5647 9.62708 17.3261C9.38843 17.0874 9.38843 16.701 9.62708 16.463C9.72046 16.369 11.637 14.4531 11.637 14.4531C11.637 14.4531 9.72107 12.5372 9.62708 12.4432C9.38843 12.2046 9.38843 11.8182 9.62708 11.5802C9.86572 11.3416 10.2521 11.3416 10.4901 11.5802C10.5841 11.6736 12.5 13.5901 12.5 13.5901C12.5 13.5901 14.4159 11.6742 14.5099 11.5802C14.7485 11.3416 15.1349 11.3416 15.3729 11.5802C15.6116 11.8188 15.6116 12.2052 15.3729 12.4432C15.2795 12.5372 13.363 14.4531 13.363 14.4531Z" fill="white"/>
</svg>
