<svg width="60" height="60" viewBox="0 0 60 60" fill="none" xmlns="http://www.w3.org/2000/svg">
    <path d="M52.5 6.42857C53.5313 6.42857 54.375 7.39286 54.375 8.57143V51.4018L53.7891 50.5312L37.8516 26.9598C37.3242 26.1696 36.4922 25.7143 35.625 25.7143C34.7578 25.7143 33.9375 26.1696 33.3984 26.9598L23.6719 41.3438L20.0977 35.625C19.5703 34.7812 18.7266 34.2857 17.8125 34.2857C16.8984 34.2857 16.0547 34.7812 15.5273 35.6384L6.15234 50.6384L5.625 51.4687V51.4286V8.57143C5.625 7.39286 6.46875 6.42857 7.5 6.42857H52.5ZM7.5 0C3.36328 0 0 3.84375 0 8.57143V51.4286C0 56.1562 3.36328 60 7.5 60H52.5C56.6367 60 60 56.1562 60 51.4286V8.57143C60 3.84375 56.6367 0 52.5 0H7.5ZM16.875 25.7143C17.6137 25.7143 18.3451 25.548 19.0276 25.2249C19.7101 24.9019 20.3301 24.4283 20.8525 23.8314C21.3748 23.2345 21.7891 22.5258 22.0718 21.7458C22.3545 20.9659 22.5 20.1299 22.5 19.2857C22.5 18.4415 22.3545 17.6056 22.0718 16.8256C21.7891 16.0457 21.3748 15.337 20.8525 14.74C20.3301 14.1431 19.7101 13.6696 19.0276 13.3465C18.3451 13.0234 17.6137 12.8571 16.875 12.8571C16.1363 12.8571 15.4049 13.0234 14.7224 13.3465C14.0399 13.6696 13.4199 14.1431 12.8975 14.74C12.3752 15.337 11.9609 16.0457 11.6782 16.8256C11.3955 17.6056 11.25 18.4415 11.25 19.2857C11.25 20.1299 11.3955 20.9659 11.6782 21.7458C11.9609 22.5258 12.3752 23.2345 12.8975 23.8314C13.4199 24.4283 14.0399 24.9019 14.7224 25.2249C15.4049 25.548 16.1363 25.7143 16.875 25.7143Z" fill="black"/>
</svg>
