<svg width="63" height="53" viewBox="0 0 63 53" fill="none" xmlns="http://www.w3.org/2000/svg">
<circle cx="31" cy="27" r="24.5" fill="black" stroke="url(#paint0_linear_828_372)"/>
<path d="M16.9785 34H12.4899V19.4545H17.1774C18.5884 19.4545 19.7958 19.7457 20.7995 20.3281C21.8033 20.9058 22.5727 21.7367 23.1078 22.821C23.6428 23.9006 23.9103 25.1932 23.9103 26.6989C23.9103 28.214 23.6404 29.5185 23.1007 30.6122C22.5609 31.7012 21.7749 32.5393 20.7427 33.1264C19.7105 33.7088 18.4558 34 16.9785 34ZM14.2512 32.4375H16.8649C18.0675 32.4375 19.0642 32.2055 19.8549 31.7415C20.6457 31.2775 21.2351 30.617 21.6234 29.7599C22.0117 28.9029 22.2058 27.8826 22.2058 26.6989C22.2058 25.5246 22.014 24.5137 21.6305 23.6662C21.247 22.8139 20.6741 22.1605 19.9118 21.706C19.1494 21.2467 18.2001 21.017 17.0637 21.017H14.2512V32.4375ZM30.7569 34.1989C29.8005 34.1989 28.9766 34.0237 28.2853 33.6733C27.594 33.3229 27.0614 32.8423 26.6873 32.2315C26.3133 31.6207 26.1262 30.9223 26.1262 30.1364C26.1262 29.5303 26.2541 28.9929 26.5098 28.5241C26.7702 28.0507 27.1277 27.6127 27.5822 27.2102C28.0415 26.803 28.5694 26.3958 29.166 25.9886L31.2683 24.4261C31.6802 24.1562 32.0093 23.8674 32.2555 23.5597C32.5065 23.2519 32.6319 22.8494 32.6319 22.3523C32.6319 21.983 32.4686 21.6255 32.1419 21.2798C31.8199 20.9342 31.3961 20.7614 30.8706 20.7614C30.5012 20.7614 30.1745 20.8561 29.8904 21.0455C29.6111 21.2301 29.3909 21.4669 29.2299 21.7557C29.0737 22.0398 28.9956 22.3333 28.9956 22.6364C28.9956 22.9773 29.0879 23.3229 29.2725 23.6733C29.4619 24.0189 29.7011 24.3741 29.9899 24.7386C30.2834 25.0985 30.5865 25.4678 30.899 25.8466L37.5751 34H35.5581L30.0467 27.3523C29.5353 26.7367 29.0713 26.178 28.6547 25.6761C28.238 25.1742 27.9065 24.6795 27.6603 24.1918C27.4141 23.7041 27.291 23.1761 27.291 22.608C27.291 21.9545 27.4354 21.3816 27.7243 20.8892C28.0178 20.392 28.4274 20.0062 28.9529 19.7315C29.4833 19.4522 30.1035 19.3125 30.8137 19.3125C31.5429 19.3125 32.1703 19.4545 32.6958 19.7386C33.2214 20.018 33.6262 20.3897 33.9103 20.8537C34.1944 21.313 34.3365 21.8125 34.3365 22.3523C34.3365 23.0483 34.1636 23.652 33.818 24.1634C33.4724 24.6747 33.0012 25.1506 32.4047 25.5909L29.5069 27.75C28.8535 28.233 28.4108 28.7017 28.1788 29.1562C27.9468 29.6108 27.8308 29.9375 27.8308 30.1364C27.8308 30.5909 27.9492 31.0147 28.1859 31.4077C28.4226 31.8007 28.7565 32.1179 29.1873 32.3594C29.6182 32.6009 30.1225 32.7216 30.7001 32.7216C31.2493 32.7216 31.7844 32.6056 32.3052 32.3736C32.8261 32.1368 33.2972 31.7959 33.7186 31.3509C34.1447 30.9058 34.4809 30.3707 34.7271 29.7457C34.978 29.1207 35.1035 28.4176 35.1035 27.6364H36.7228C36.7228 28.6023 36.6116 29.3906 36.389 30.0014C36.1665 30.6122 35.9155 31.0904 35.6362 31.4361C35.3568 31.7817 35.1319 32.0398 34.9615 32.2102C34.9047 32.2812 34.8526 32.3523 34.8052 32.4233C34.7579 32.4943 34.7058 32.5653 34.649 32.6364C34.1802 33.1619 33.5884 33.5549 32.8734 33.8153C32.1584 34.071 31.4529 34.1989 30.7569 34.1989ZM44.1465 34H39.6578V19.4545H44.3453C45.7563 19.4545 46.9637 19.7457 47.9675 20.3281C48.9713 20.9058 49.7407 21.7367 50.2757 22.821C50.8108 23.9006 51.0783 25.1932 51.0783 26.6989C51.0783 28.214 50.8084 29.5185 50.2686 30.6122C49.7289 31.7012 48.9429 32.5393 47.9107 33.1264C46.8785 33.7088 45.6238 34 44.1465 34ZM41.4192 32.4375H44.0328C45.2355 32.4375 46.2322 32.2055 47.0229 31.7415C47.8136 31.2775 48.4031 30.617 48.7914 29.7599C49.1796 28.9029 49.3738 27.8826 49.3738 26.6989C49.3738 25.5246 49.182 24.5137 48.7985 23.6662C48.415 22.8139 47.842 22.1605 47.0797 21.706C46.3174 21.2467 45.3681 21.017 44.2317 21.017H41.4192V32.4375Z" fill="url(#paint1_linear_828_372)"/>
<defs>
<linearGradient id="paint0_linear_828_372" x1="31" y1="2" x2="31" y2="52" gradientUnits="userSpaceOnUse">
<stop stop-color="#3DB7C7"/>
<stop offset="1" stop-color="#2734AC"/>
</linearGradient>
<linearGradient id="paint1_linear_828_372" x1="31.5" y1="0" x2="31.5" y2="53" gradientUnits="userSpaceOnUse">
<stop stop-color="#44F2EB"/>
<stop offset="1" stop-color="#8E7BFF"/>
</linearGradient>
</defs>
</svg>
