<svg width="50" height="50" viewBox="0 0 50 50" fill="none" xmlns="http://www.w3.org/2000/svg">
<circle cx="25" cy="25" r="24.5" fill="black" stroke="url(#paint0_linear_848_368)"/>
<path d="M10.4785 32H5.98988V17.4545H10.6774C12.0884 17.4545 13.2958 17.7457 14.2995 18.3281C15.3033 18.9058 16.0727 19.7367 16.6078 20.821C17.1428 21.9006 17.4103 23.1932 17.4103 24.6989C17.4103 26.214 17.1404 27.5185 16.6007 28.6122C16.0609 29.7012 15.2749 30.5393 14.2427 31.1264C13.2105 31.7088 11.9558 32 10.4785 32ZM7.75124 30.4375H10.3649C11.5675 30.4375 12.5642 30.2055 13.3549 29.7415C14.1457 29.2775 14.7351 28.617 15.1234 27.7599C15.5117 26.9029 15.7058 25.8826 15.7058 24.6989C15.7058 23.5246 15.514 22.5137 15.1305 21.6662C14.747 20.8139 14.1741 20.1605 13.4118 19.706C12.6494 19.2467 11.7001 19.017 10.5637 19.017H7.75124V30.4375ZM24.2569 32.1989C23.3005 32.1989 22.4766 32.0237 21.7853 31.6733C21.094 31.3229 20.5614 30.8423 20.1873 30.2315C19.8133 29.6207 19.6262 28.9223 19.6262 28.1364C19.6262 27.5303 19.7541 26.9929 20.0098 26.5241C20.2702 26.0507 20.6277 25.6127 21.0822 25.2102C21.5415 24.803 22.0694 24.3958 22.666 23.9886L24.7683 22.4261C25.1802 22.1562 25.5093 21.8674 25.7555 21.5597C26.0065 21.2519 26.1319 20.8494 26.1319 20.3523C26.1319 19.983 25.9686 19.6255 25.6419 19.2798C25.3199 18.9342 24.8961 18.7614 24.3706 18.7614C24.0012 18.7614 23.6745 18.8561 23.3904 19.0455C23.1111 19.2301 22.8909 19.4669 22.7299 19.7557C22.5737 20.0398 22.4956 20.3333 22.4956 20.6364C22.4956 20.9773 22.5879 21.3229 22.7725 21.6733C22.9619 22.0189 23.2011 22.3741 23.4899 22.7386C23.7834 23.0985 24.0865 23.4678 24.399 23.8466L31.0751 32H29.0581L23.5467 25.3523C23.0353 24.7367 22.5713 24.178 22.1547 23.6761C21.738 23.1742 21.4065 22.6795 21.1603 22.1918C20.9141 21.7041 20.791 21.1761 20.791 20.608C20.791 19.9545 20.9354 19.3816 21.2243 18.8892C21.5178 18.392 21.9274 18.0062 22.4529 17.7315C22.9833 17.4522 23.6035 17.3125 24.3137 17.3125C25.0429 17.3125 25.6703 17.4545 26.1958 17.7386C26.7214 18.018 27.1262 18.3897 27.4103 18.8537C27.6944 19.313 27.8365 19.8125 27.8365 20.3523C27.8365 21.0483 27.6636 21.652 27.318 22.1634C26.9724 22.6747 26.5012 23.1506 25.9047 23.5909L23.0069 25.75C22.3535 26.233 21.9108 26.7017 21.6788 27.1562C21.4468 27.6108 21.3308 27.9375 21.3308 28.1364C21.3308 28.5909 21.4492 29.0147 21.6859 29.4077C21.9226 29.8007 22.2565 30.1179 22.6873 30.3594C23.1182 30.6009 23.6225 30.7216 24.2001 30.7216C24.7493 30.7216 25.2844 30.6056 25.8052 30.3736C26.3261 30.1368 26.7972 29.7959 27.2186 29.3509C27.6447 28.9058 27.9809 28.3707 28.2271 27.7457C28.478 27.1207 28.6035 26.4176 28.6035 25.6364H30.2228C30.2228 26.6023 30.1116 27.3906 29.889 28.0014C29.6665 28.6122 29.4155 29.0904 29.1362 29.4361C28.8568 29.7817 28.6319 30.0398 28.4615 30.2102C28.4047 30.2812 28.3526 30.3523 28.3052 30.4233C28.2579 30.4943 28.2058 30.5653 28.149 30.6364C27.6802 31.1619 27.0884 31.5549 26.3734 31.8153C25.6584 32.071 24.9529 32.1989 24.2569 32.1989ZM37.6465 32H33.1578V17.4545H37.8453C39.2563 17.4545 40.4637 17.7457 41.4675 18.3281C42.4713 18.9058 43.2407 19.7367 43.7757 20.821C44.3108 21.9006 44.5783 23.1932 44.5783 24.6989C44.5783 26.214 44.3084 27.5185 43.7686 28.6122C43.2289 29.7012 42.4429 30.5393 41.4107 31.1264C40.3785 31.7088 39.1238 32 37.6465 32ZM34.9192 30.4375H37.5328C38.7355 30.4375 39.7322 30.2055 40.5229 29.7415C41.3136 29.2775 41.9031 28.617 42.2914 27.7599C42.6796 26.9029 42.8738 25.8826 42.8738 24.6989C42.8738 23.5246 42.682 22.5137 42.2985 21.6662C41.915 20.8139 41.342 20.1605 40.5797 19.706C39.8174 19.2467 38.8681 19.017 37.7317 19.017H34.9192V30.4375Z" fill="url(#paint1_linear_848_368)"/>
<defs>
<linearGradient id="paint0_linear_848_368" x1="25" y1="0" x2="25" y2="50" gradientUnits="userSpaceOnUse">
<stop stop-color="#3DB7C7"/>
<stop offset="1" stop-color="#2734AC"/>
</linearGradient>
<linearGradient id="paint1_linear_848_368" x1="25" y1="0" x2="25" y2="50" gradientUnits="userSpaceOnUse">
<stop stop-color="#44F2EB"/>
<stop offset="1" stop-color="#8E7BFF"/>
</linearGradient>
</defs>
</svg>
