<svg width="186" height="50" viewBox="0 0 186 50" fill="none" xmlns="http://www.w3.org/2000/svg">
<path d="M64.4575 33V17.6H59.0825V15.5H72.2075V17.6H66.8325V33H64.4575ZM77.5315 33.3C75.6649 33.3 74.1815 32.7083 73.0815 31.525C71.9982 30.325 71.4565 28.65 71.4565 26.5C71.4565 25.2 71.6982 24.0417 72.1815 23.025C72.6815 21.9917 73.3732 21.1833 74.2565 20.6C75.1399 20 76.1649 19.7 77.3315 19.7C78.5815 19.7 79.6149 19.975 80.4315 20.525C81.2649 21.0583 81.8899 21.7833 82.3065 22.7C82.7232 23.6167 82.9315 24.625 82.9315 25.725C82.9315 26.3083 82.9065 26.875 82.8565 27.425H73.7565C73.9065 28.6417 74.3315 29.5917 75.0315 30.275C75.7315 30.9583 76.6565 31.3 77.8065 31.3C78.5565 31.3 79.2315 31.225 79.8315 31.075C80.4315 30.9083 81.0065 30.7 81.5565 30.45L82.0815 32.375C81.4815 32.6417 80.8065 32.8583 80.0565 33.025C79.3065 33.2083 78.4649 33.3 77.5315 33.3ZM73.7315 25.6H80.8565C80.8565 24.3333 80.5399 23.3583 79.9065 22.675C79.2732 21.9917 78.3982 21.65 77.2815 21.65C76.3149 21.65 75.5149 21.9917 74.8815 22.675C74.2482 23.3417 73.8649 24.3167 73.7315 25.6ZM91.1802 33.3C89.9468 33.3 88.8635 33.0167 87.9302 32.45C87.0135 31.8667 86.3052 31.0667 85.8052 30.05C85.3052 29.0167 85.0552 27.8333 85.0552 26.5C85.0552 25.25 85.3052 24.1083 85.8052 23.075C86.3218 22.0417 87.0552 21.225 88.0052 20.625C88.9552 20.0083 90.0718 19.7 91.3552 19.7C92.0885 19.7 92.7302 19.7667 93.2802 19.9C93.8468 20.0333 94.3885 20.225 94.9052 20.475L94.2302 22.375C93.7635 22.1417 93.3135 21.975 92.8802 21.875C92.4635 21.7583 91.9968 21.7 91.4802 21.7C90.3135 21.7 89.3302 22.125 88.5302 22.975C87.7468 23.8083 87.3552 24.9667 87.3552 26.45C87.3552 27.35 87.5218 28.1667 87.8552 28.9C88.1885 29.6333 88.6468 30.2167 89.2302 30.65C89.8302 31.0833 90.5302 31.3 91.3302 31.3C91.9635 31.3 92.5052 31.2333 92.9552 31.1C93.4052 30.95 93.8885 30.7417 94.4052 30.475L95.1052 32.375C94.5885 32.6583 94.0052 32.8833 93.3552 33.05C92.7218 33.2167 91.9968 33.3 91.1802 33.3ZM97.7222 33V14.5H99.9722V22.075C100.439 21.3917 101.031 20.825 101.747 20.375C102.464 19.925 103.306 19.7 104.272 19.7C105.739 19.7 106.831 20.1417 107.547 21.025C108.281 21.9083 108.647 23.075 108.647 24.525V33H106.397V24.775C106.397 23.8417 106.181 23.0917 105.747 22.525C105.314 21.9583 104.706 21.675 103.922 21.675C103.156 21.675 102.422 21.95 101.722 22.5C101.039 23.0333 100.456 23.6667 99.9722 24.4V33H97.7222ZM117.817 33.2C116.8 33.2 115.834 33.175 114.917 33.125C114.017 33.075 113.3 33.0167 112.767 32.95V15.55C113.35 15.4833 114.075 15.425 114.942 15.375C115.809 15.325 116.8 15.3 117.917 15.3C120.05 15.3 121.692 15.7083 122.842 16.525C123.992 17.325 124.567 18.4167 124.567 19.8C124.567 20.7167 124.317 21.5 123.817 22.15C123.334 22.7833 122.625 23.3083 121.692 23.725C122.825 24.125 123.684 24.6833 124.267 25.4C124.85 26.1 125.142 26.9667 125.142 28C125.142 29.5833 124.517 30.85 123.267 31.8C122.017 32.7333 120.2 33.2 117.817 33.2ZM115.142 23.05H117.892C119.209 23.05 120.25 22.775 121.017 22.225C121.8 21.675 122.192 20.9667 122.192 20.1C122.192 19.1667 121.809 18.4583 121.042 17.975C120.275 17.475 119.225 17.225 117.892 17.225C117.342 17.225 116.842 17.2417 116.392 17.275C115.942 17.2917 115.525 17.3167 115.142 17.35V23.05ZM117.992 31.225C119.475 31.225 120.634 30.9583 121.467 30.425C122.3 29.8917 122.717 29.1167 122.717 28.1C122.717 27.1 122.309 26.3167 121.492 25.75C120.675 25.1833 119.509 24.9 117.992 24.9H115.142V31.075C116.025 31.175 116.975 31.225 117.992 31.225ZM133.464 33.3C131.597 33.3 130.114 32.7083 129.014 31.525C127.931 30.325 127.389 28.65 127.389 26.5C127.389 25.2 127.631 24.0417 128.114 23.025C128.614 21.9917 129.306 21.1833 130.189 20.6C131.072 20 132.097 19.7 133.264 19.7C134.514 19.7 135.547 19.975 136.364 20.525C137.197 21.0583 137.822 21.7833 138.239 22.7C138.656 23.6167 138.864 24.625 138.864 25.725C138.864 26.3083 138.839 26.875 138.789 27.425H129.689C129.839 28.6417 130.264 29.5917 130.964 30.275C131.664 30.9583 132.589 31.3 133.739 31.3C134.489 31.3 135.164 31.225 135.764 31.075C136.364 30.9083 136.939 30.7 137.489 30.45L138.014 32.375C137.414 32.6417 136.739 32.8583 135.989 33.025C135.239 33.2083 134.397 33.3 133.464 33.3ZM129.664 25.6H136.789C136.789 24.3333 136.472 23.3583 135.839 22.675C135.206 21.9917 134.331 21.65 133.214 21.65C132.247 21.65 131.447 21.9917 130.814 22.675C130.181 23.3417 129.797 24.3167 129.664 25.6ZM146.838 33.3C145.754 33.3 144.771 33.025 143.888 32.475C143.004 31.925 142.296 31.15 141.763 30.15C141.246 29.1333 140.988 27.9417 140.988 26.575C140.988 25.275 141.246 24.1083 141.763 23.075C142.296 22.0417 143.021 21.225 143.938 20.625C144.871 20.0083 145.938 19.7 147.138 19.7C147.888 19.7 148.563 19.8333 149.163 20.1C149.779 20.35 150.313 20.6667 150.763 21.05V20H152.813V29.85C152.813 30.4833 152.963 30.9 153.263 31.1C153.579 31.2833 153.921 31.375 154.288 31.375L153.813 33.125C152.213 33.125 151.246 32.475 150.913 31.175C150.529 31.7083 150.004 32.2 149.338 32.65C148.688 33.0833 147.854 33.3 146.838 33.3ZM147.338 31.3C147.971 31.3 148.571 31.15 149.138 30.85C149.704 30.5333 150.179 30.1417 150.563 29.675V22.7C150.113 22.3833 149.613 22.1333 149.063 21.95C148.529 21.75 147.963 21.65 147.363 21.65C146.563 21.65 145.854 21.8583 145.238 22.275C144.638 22.675 144.163 23.2417 143.813 23.975C143.463 24.6917 143.288 25.5333 143.288 26.5C143.288 27.4333 143.463 28.2667 143.813 29C144.163 29.7167 144.646 30.2833 145.263 30.7C145.879 31.1 146.571 31.3 147.338 31.3ZM161.842 33.3C160.592 33.3 159.601 32.8917 158.867 32.075C158.151 31.2417 157.792 30.0583 157.792 28.525V22.425H155.542V20.475H157.842L158.317 16.375H160.042V20.475H163.642V22.425H160.042V28.7C160.042 29.6667 160.242 30.3417 160.642 30.725C161.059 31.1083 161.551 31.3 162.117 31.3C162.534 31.3 162.926 31.2333 163.292 31.1C163.676 30.9667 164.026 30.8083 164.342 30.625L164.967 32.425C164.634 32.625 164.184 32.8167 163.617 33C163.051 33.2 162.459 33.3 161.842 33.3ZM170.973 33.3C169.99 33.3 169.098 33.175 168.298 32.925C167.515 32.675 166.865 32.35 166.348 31.95L167.298 30.075C167.731 30.4417 168.273 30.75 168.923 31C169.59 31.2333 170.298 31.35 171.048 31.35C171.981 31.35 172.681 31.2 173.148 30.9C173.631 30.5833 173.873 30.1833 173.873 29.7C173.873 29.35 173.781 29.0417 173.598 28.775C173.431 28.5083 173.115 28.25 172.648 28C172.181 27.7333 171.506 27.45 170.623 27.15C169.406 26.7333 168.49 26.2417 167.873 25.675C167.273 25.0917 166.973 24.2917 166.973 23.275C166.973 22.275 167.406 21.4333 168.273 20.75C169.156 20.05 170.373 19.7 171.923 19.7C172.756 19.7 173.498 19.7917 174.148 19.975C174.798 20.1417 175.381 20.3583 175.898 20.625L175.273 22.475C174.823 22.2083 174.306 21.9917 173.723 21.825C173.156 21.6583 172.523 21.575 171.823 21.575C170.956 21.575 170.298 21.75 169.848 22.1C169.398 22.45 169.173 22.8333 169.173 23.25C169.173 23.65 169.348 23.9917 169.698 24.275C170.048 24.5583 170.731 24.8667 171.748 25.2C173.398 25.75 174.548 26.3583 175.198 27.025C175.848 27.6917 176.173 28.525 176.173 29.525C176.173 30.6917 175.698 31.6167 174.748 32.3C173.815 32.9667 172.556 33.3 170.973 33.3Z" fill="url(#paint0_linear_848_367)"/>
<circle cx="25" cy="25" r="24.5" fill="black" stroke="url(#paint1_linear_848_367)"/>
<path d="M10.4785 32H5.98988V17.4545H10.6774C12.0884 17.4545 13.2958 17.7457 14.2995 18.3281C15.3033 18.9058 16.0727 19.7367 16.6078 20.821C17.1428 21.9006 17.4103 23.1932 17.4103 24.6989C17.4103 26.214 17.1404 27.5185 16.6007 28.6122C16.0609 29.7012 15.2749 30.5393 14.2427 31.1264C13.2105 31.7088 11.9558 32 10.4785 32ZM7.75124 30.4375H10.3649C11.5675 30.4375 12.5642 30.2055 13.3549 29.7415C14.1457 29.2775 14.7351 28.617 15.1234 27.7599C15.5117 26.9029 15.7058 25.8826 15.7058 24.6989C15.7058 23.5246 15.514 22.5137 15.1305 21.6662C14.747 20.8139 14.1741 20.1605 13.4118 19.706C12.6494 19.2467 11.7001 19.017 10.5637 19.017H7.75124V30.4375ZM24.2569 32.1989C23.3005 32.1989 22.4766 32.0237 21.7853 31.6733C21.094 31.3229 20.5614 30.8423 20.1873 30.2315C19.8133 29.6207 19.6262 28.9223 19.6262 28.1364C19.6262 27.5303 19.7541 26.9929 20.0098 26.5241C20.2702 26.0507 20.6277 25.6127 21.0822 25.2102C21.5415 24.803 22.0694 24.3958 22.666 23.9886L24.7683 22.4261C25.1802 22.1562 25.5093 21.8674 25.7555 21.5597C26.0065 21.2519 26.1319 20.8494 26.1319 20.3523C26.1319 19.983 25.9686 19.6255 25.6419 19.2798C25.3199 18.9342 24.8961 18.7614 24.3706 18.7614C24.0012 18.7614 23.6745 18.8561 23.3904 19.0455C23.1111 19.2301 22.8909 19.4669 22.7299 19.7557C22.5737 20.0398 22.4956 20.3333 22.4956 20.6364C22.4956 20.9773 22.5879 21.3229 22.7725 21.6733C22.9619 22.0189 23.2011 22.3741 23.4899 22.7386C23.7834 23.0985 24.0865 23.4678 24.399 23.8466L31.0751 32H29.0581L23.5467 25.3523C23.0353 24.7367 22.5713 24.178 22.1547 23.6761C21.738 23.1742 21.4065 22.6795 21.1603 22.1918C20.9141 21.7041 20.791 21.1761 20.791 20.608C20.791 19.9545 20.9354 19.3816 21.2243 18.8892C21.5178 18.392 21.9274 18.0062 22.4529 17.7315C22.9833 17.4522 23.6035 17.3125 24.3137 17.3125C25.0429 17.3125 25.6703 17.4545 26.1958 17.7386C26.7214 18.018 27.1262 18.3897 27.4103 18.8537C27.6944 19.313 27.8365 19.8125 27.8365 20.3523C27.8365 21.0483 27.6636 21.652 27.318 22.1634C26.9724 22.6747 26.5012 23.1506 25.9047 23.5909L23.0069 25.75C22.3535 26.233 21.9108 26.7017 21.6788 27.1562C21.4468 27.6108 21.3308 27.9375 21.3308 28.1364C21.3308 28.5909 21.4492 29.0147 21.6859 29.4077C21.9226 29.8007 22.2565 30.1179 22.6873 30.3594C23.1182 30.6009 23.6225 30.7216 24.2001 30.7216C24.7493 30.7216 25.2844 30.6056 25.8052 30.3736C26.3261 30.1368 26.7972 29.7959 27.2186 29.3509C27.6447 28.9058 27.9809 28.3707 28.2271 27.7457C28.478 27.1207 28.6035 26.4176 28.6035 25.6364H30.2228C30.2228 26.6023 30.1116 27.3906 29.889 28.0014C29.6665 28.6122 29.4155 29.0904 29.1362 29.4361C28.8568 29.7817 28.6319 30.0398 28.4615 30.2102C28.4047 30.2812 28.3526 30.3523 28.3052 30.4233C28.2579 30.4943 28.2058 30.5653 28.149 30.6364C27.6802 31.1619 27.0884 31.5549 26.3734 31.8153C25.6584 32.071 24.9529 32.1989 24.2569 32.1989ZM37.6465 32H33.1578V17.4545H37.8453C39.2563 17.4545 40.4637 17.7457 41.4675 18.3281C42.4713 18.9058 43.2407 19.7367 43.7757 20.821C44.3108 21.9006 44.5783 23.1932 44.5783 24.6989C44.5783 26.214 44.3084 27.5185 43.7686 28.6122C43.2289 29.7012 42.4429 30.5393 41.4107 31.1264C40.3785 31.7088 39.1238 32 37.6465 32ZM34.9192 30.4375H37.5328C38.7355 30.4375 39.7322 30.2055 40.5229 29.7415C41.3136 29.2775 41.9031 28.617 42.2914 27.7599C42.6796 26.9029 42.8738 25.8826 42.8738 24.6989C42.8738 23.5246 42.682 22.5137 42.2985 21.6662C41.915 20.8139 41.342 20.1605 40.5797 19.706C39.8174 19.2467 38.8681 19.017 37.7317 19.017H34.9192V30.4375Z" fill="url(#paint2_linear_848_367)"/>
<defs>
<linearGradient id="paint0_linear_848_367" x1="50" y1="25" x2="186" y2="25" gradientUnits="userSpaceOnUse">
<stop offset="0.24" stop-color="#28E0F9"/>
<stop offset="1" stop-color="#C3D0E5"/>
</linearGradient>
<linearGradient id="paint1_linear_848_367" x1="25" y1="0" x2="25" y2="50" gradientUnits="userSpaceOnUse">
<stop stop-color="#3DB7C7"/>
<stop offset="1" stop-color="#2734AC"/>
</linearGradient>
<linearGradient id="paint2_linear_848_367" x1="25" y1="0" x2="25" y2="50" gradientUnits="userSpaceOnUse">
<stop stop-color="#44F2EB"/>
<stop offset="1" stop-color="#8E7BFF"/>
</linearGradient>
</defs>
</svg>
