<svg width="187" height="53" viewBox="0 0 187 53" fill="none" xmlns="http://www.w3.org/2000/svg">
<circle cx="31" cy="27" r="24.5" fill="black" stroke="url(#paint0_linear_836_367)"/>
<path d="M16.9785 34H12.4899V19.4545H17.1774C18.5884 19.4545 19.7958 19.7457 20.7995 20.3281C21.8033 20.9058 22.5727 21.7367 23.1078 22.821C23.6428 23.9006 23.9103 25.1932 23.9103 26.6989C23.9103 28.214 23.6404 29.5185 23.1007 30.6122C22.5609 31.7012 21.7749 32.5393 20.7427 33.1264C19.7105 33.7088 18.4558 34 16.9785 34ZM14.2512 32.4375H16.8649C18.0675 32.4375 19.0642 32.2055 19.8549 31.7415C20.6457 31.2775 21.2351 30.617 21.6234 29.7599C22.0117 28.9029 22.2058 27.8826 22.2058 26.6989C22.2058 25.5246 22.014 24.5137 21.6305 23.6662C21.247 22.8139 20.6741 22.1605 19.9118 21.706C19.1494 21.2467 18.2001 21.017 17.0637 21.017H14.2512V32.4375ZM30.7569 34.1989C29.8005 34.1989 28.9766 34.0237 28.2853 33.6733C27.594 33.3229 27.0614 32.8423 26.6873 32.2315C26.3133 31.6207 26.1262 30.9223 26.1262 30.1364C26.1262 29.5303 26.2541 28.9929 26.5098 28.5241C26.7702 28.0507 27.1277 27.6127 27.5822 27.2102C28.0415 26.803 28.5694 26.3958 29.166 25.9886L31.2683 24.4261C31.6802 24.1562 32.0093 23.8674 32.2555 23.5597C32.5065 23.2519 32.6319 22.8494 32.6319 22.3523C32.6319 21.983 32.4686 21.6255 32.1419 21.2798C31.8199 20.9342 31.3961 20.7614 30.8706 20.7614C30.5012 20.7614 30.1745 20.8561 29.8904 21.0455C29.6111 21.2301 29.3909 21.4669 29.2299 21.7557C29.0737 22.0398 28.9956 22.3333 28.9956 22.6364C28.9956 22.9773 29.0879 23.3229 29.2725 23.6733C29.4619 24.0189 29.7011 24.3741 29.9899 24.7386C30.2834 25.0985 30.5865 25.4678 30.899 25.8466L37.5751 34H35.5581L30.0467 27.3523C29.5353 26.7367 29.0713 26.178 28.6547 25.6761C28.238 25.1742 27.9065 24.6795 27.6603 24.1918C27.4141 23.7041 27.291 23.1761 27.291 22.608C27.291 21.9545 27.4354 21.3816 27.7243 20.8892C28.0178 20.392 28.4274 20.0062 28.9529 19.7315C29.4833 19.4522 30.1035 19.3125 30.8137 19.3125C31.5429 19.3125 32.1703 19.4545 32.6958 19.7386C33.2214 20.018 33.6262 20.3897 33.9103 20.8537C34.1944 21.313 34.3365 21.8125 34.3365 22.3523C34.3365 23.0483 34.1636 23.652 33.818 24.1634C33.4724 24.6747 33.0012 25.1506 32.4047 25.5909L29.5069 27.75C28.8535 28.233 28.4108 28.7017 28.1788 29.1562C27.9468 29.6108 27.8308 29.9375 27.8308 30.1364C27.8308 30.5909 27.9492 31.0147 28.1859 31.4077C28.4226 31.8007 28.7565 32.1179 29.1873 32.3594C29.6182 32.6009 30.1225 32.7216 30.7001 32.7216C31.2493 32.7216 31.7844 32.6056 32.3052 32.3736C32.8261 32.1368 33.2972 31.7959 33.7186 31.3509C34.1447 30.9058 34.4809 30.3707 34.7271 29.7457C34.978 29.1207 35.1035 28.4176 35.1035 27.6364H36.7228C36.7228 28.6023 36.6116 29.3906 36.389 30.0014C36.1665 30.6122 35.9155 31.0904 35.6362 31.4361C35.3568 31.7817 35.1319 32.0398 34.9615 32.2102C34.9047 32.2812 34.8526 32.3523 34.8052 32.4233C34.7579 32.4943 34.7058 32.5653 34.649 32.6364C34.1802 33.1619 33.5884 33.5549 32.8734 33.8153C32.1584 34.071 31.4529 34.1989 30.7569 34.1989ZM44.1465 34H39.6578V19.4545H44.3453C45.7563 19.4545 46.9637 19.7457 47.9675 20.3281C48.9713 20.9058 49.7407 21.7367 50.2757 22.821C50.8108 23.9006 51.0783 25.1932 51.0783 26.6989C51.0783 28.214 50.8084 29.5185 50.2686 30.6122C49.7289 31.7012 48.9429 32.5393 47.9107 33.1264C46.8785 33.7088 45.6238 34 44.1465 34ZM41.4192 32.4375H44.0328C45.2355 32.4375 46.2322 32.2055 47.0229 31.7415C47.8136 31.2775 48.4031 30.617 48.7914 29.7599C49.1796 28.9029 49.3738 27.8826 49.3738 26.6989C49.3738 25.5246 49.182 24.5137 48.7985 23.6662C48.415 22.8139 47.842 22.1605 47.0797 21.706C46.3174 21.2467 45.3681 21.017 44.2317 21.017H41.4192V32.4375Z" fill="url(#paint1_linear_836_367)"/>
<path d="M65.4575 35V19.6H60.0825V17.5H73.2075V19.6H67.8325V35H65.4575ZM78.5315 35.3C76.6649 35.3 75.1815 34.7083 74.0815 33.525C72.9982 32.325 72.4565 30.65 72.4565 28.5C72.4565 27.2 72.6982 26.0417 73.1815 25.025C73.6815 23.9917 74.3732 23.1833 75.2565 22.6C76.1399 22 77.1649 21.7 78.3315 21.7C79.5815 21.7 80.6149 21.975 81.4315 22.525C82.2649 23.0583 82.8899 23.7833 83.3065 24.7C83.7232 25.6167 83.9315 26.625 83.9315 27.725C83.9315 28.3083 83.9065 28.875 83.8565 29.425H74.7565C74.9065 30.6417 75.3315 31.5917 76.0315 32.275C76.7315 32.9583 77.6565 33.3 78.8065 33.3C79.5565 33.3 80.2315 33.225 80.8315 33.075C81.4315 32.9083 82.0065 32.7 82.5565 32.45L83.0815 34.375C82.4815 34.6417 81.8065 34.8583 81.0565 35.025C80.3065 35.2083 79.4649 35.3 78.5315 35.3ZM74.7315 27.6H81.8565C81.8565 26.3333 81.5399 25.3583 80.9065 24.675C80.2732 23.9917 79.3982 23.65 78.2815 23.65C77.3149 23.65 76.5149 23.9917 75.8815 24.675C75.2482 25.3417 74.8649 26.3167 74.7315 27.6ZM92.1802 35.3C90.9468 35.3 89.8635 35.0167 88.9302 34.45C88.0135 33.8667 87.3052 33.0667 86.8052 32.05C86.3052 31.0167 86.0552 29.8333 86.0552 28.5C86.0552 27.25 86.3052 26.1083 86.8052 25.075C87.3218 24.0417 88.0552 23.225 89.0052 22.625C89.9552 22.0083 91.0718 21.7 92.3552 21.7C93.0885 21.7 93.7302 21.7667 94.2802 21.9C94.8468 22.0333 95.3885 22.225 95.9052 22.475L95.2302 24.375C94.7635 24.1417 94.3135 23.975 93.8802 23.875C93.4635 23.7583 92.9968 23.7 92.4802 23.7C91.3135 23.7 90.3302 24.125 89.5302 24.975C88.7468 25.8083 88.3552 26.9667 88.3552 28.45C88.3552 29.35 88.5218 30.1667 88.8552 30.9C89.1885 31.6333 89.6468 32.2167 90.2302 32.65C90.8302 33.0833 91.5302 33.3 92.3302 33.3C92.9635 33.3 93.5052 33.2333 93.9552 33.1C94.4052 32.95 94.8885 32.7417 95.4052 32.475L96.1052 34.375C95.5885 34.6583 95.0052 34.8833 94.3552 35.05C93.7218 35.2167 92.9968 35.3 92.1802 35.3ZM98.7222 35V16.5H100.972V24.075C101.439 23.3917 102.031 22.825 102.747 22.375C103.464 21.925 104.306 21.7 105.272 21.7C106.739 21.7 107.831 22.1417 108.547 23.025C109.281 23.9083 109.647 25.075 109.647 26.525V35H107.397V26.775C107.397 25.8417 107.181 25.0917 106.747 24.525C106.314 23.9583 105.706 23.675 104.922 23.675C104.156 23.675 103.422 23.95 102.722 24.5C102.039 25.0333 101.456 25.6667 100.972 26.4V35H98.7222ZM118.817 35.2C117.8 35.2 116.834 35.175 115.917 35.125C115.017 35.075 114.3 35.0167 113.767 34.95V17.55C114.35 17.4833 115.075 17.425 115.942 17.375C116.809 17.325 117.8 17.3 118.917 17.3C121.05 17.3 122.692 17.7083 123.842 18.525C124.992 19.325 125.567 20.4167 125.567 21.8C125.567 22.7167 125.317 23.5 124.817 24.15C124.334 24.7833 123.625 25.3083 122.692 25.725C123.825 26.125 124.684 26.6833 125.267 27.4C125.85 28.1 126.142 28.9667 126.142 30C126.142 31.5833 125.517 32.85 124.267 33.8C123.017 34.7333 121.2 35.2 118.817 35.2ZM116.142 25.05H118.892C120.209 25.05 121.25 24.775 122.017 24.225C122.8 23.675 123.192 22.9667 123.192 22.1C123.192 21.1667 122.809 20.4583 122.042 19.975C121.275 19.475 120.225 19.225 118.892 19.225C118.342 19.225 117.842 19.2417 117.392 19.275C116.942 19.2917 116.525 19.3167 116.142 19.35V25.05ZM118.992 33.225C120.475 33.225 121.634 32.9583 122.467 32.425C123.3 31.8917 123.717 31.1167 123.717 30.1C123.717 29.1 123.309 28.3167 122.492 27.75C121.675 27.1833 120.509 26.9 118.992 26.9H116.142V33.075C117.025 33.175 117.975 33.225 118.992 33.225ZM134.464 35.3C132.597 35.3 131.114 34.7083 130.014 33.525C128.931 32.325 128.389 30.65 128.389 28.5C128.389 27.2 128.631 26.0417 129.114 25.025C129.614 23.9917 130.306 23.1833 131.189 22.6C132.072 22 133.097 21.7 134.264 21.7C135.514 21.7 136.547 21.975 137.364 22.525C138.197 23.0583 138.822 23.7833 139.239 24.7C139.656 25.6167 139.864 26.625 139.864 27.725C139.864 28.3083 139.839 28.875 139.789 29.425H130.689C130.839 30.6417 131.264 31.5917 131.964 32.275C132.664 32.9583 133.589 33.3 134.739 33.3C135.489 33.3 136.164 33.225 136.764 33.075C137.364 32.9083 137.939 32.7 138.489 32.45L139.014 34.375C138.414 34.6417 137.739 34.8583 136.989 35.025C136.239 35.2083 135.397 35.3 134.464 35.3ZM130.664 27.6H137.789C137.789 26.3333 137.472 25.3583 136.839 24.675C136.206 23.9917 135.331 23.65 134.214 23.65C133.247 23.65 132.447 23.9917 131.814 24.675C131.181 25.3417 130.797 26.3167 130.664 27.6ZM147.838 35.3C146.754 35.3 145.771 35.025 144.888 34.475C144.004 33.925 143.296 33.15 142.763 32.15C142.246 31.1333 141.988 29.9417 141.988 28.575C141.988 27.275 142.246 26.1083 142.763 25.075C143.296 24.0417 144.021 23.225 144.938 22.625C145.871 22.0083 146.938 21.7 148.138 21.7C148.888 21.7 149.563 21.8333 150.163 22.1C150.779 22.35 151.313 22.6667 151.763 23.05V22H153.813V31.85C153.813 32.4833 153.963 32.9 154.263 33.1C154.579 33.2833 154.921 33.375 155.288 33.375L154.813 35.125C153.213 35.125 152.246 34.475 151.913 33.175C151.529 33.7083 151.004 34.2 150.338 34.65C149.688 35.0833 148.854 35.3 147.838 35.3ZM148.338 33.3C148.971 33.3 149.571 33.15 150.138 32.85C150.704 32.5333 151.179 32.1417 151.563 31.675V24.7C151.113 24.3833 150.613 24.1333 150.063 23.95C149.529 23.75 148.963 23.65 148.363 23.65C147.563 23.65 146.854 23.8583 146.238 24.275C145.638 24.675 145.163 25.2417 144.813 25.975C144.463 26.6917 144.288 27.5333 144.288 28.5C144.288 29.4333 144.463 30.2667 144.813 31C145.163 31.7167 145.646 32.2833 146.263 32.7C146.879 33.1 147.571 33.3 148.338 33.3ZM162.842 35.3C161.592 35.3 160.601 34.8917 159.867 34.075C159.151 33.2417 158.792 32.0583 158.792 30.525V24.425H156.542V22.475H158.842L159.317 18.375H161.042V22.475H164.642V24.425H161.042V30.7C161.042 31.6667 161.242 32.3417 161.642 32.725C162.059 33.1083 162.551 33.3 163.117 33.3C163.534 33.3 163.926 33.2333 164.292 33.1C164.676 32.9667 165.026 32.8083 165.342 32.625L165.967 34.425C165.634 34.625 165.184 34.8167 164.617 35C164.051 35.2 163.459 35.3 162.842 35.3ZM171.973 35.3C170.99 35.3 170.098 35.175 169.298 34.925C168.515 34.675 167.865 34.35 167.348 33.95L168.298 32.075C168.731 32.4417 169.273 32.75 169.923 33C170.59 33.2333 171.298 33.35 172.048 33.35C172.981 33.35 173.681 33.2 174.148 32.9C174.631 32.5833 174.873 32.1833 174.873 31.7C174.873 31.35 174.781 31.0417 174.598 30.775C174.431 30.5083 174.115 30.25 173.648 30C173.181 29.7333 172.506 29.45 171.623 29.15C170.406 28.7333 169.49 28.2417 168.873 27.675C168.273 27.0917 167.973 26.2917 167.973 25.275C167.973 24.275 168.406 23.4333 169.273 22.75C170.156 22.05 171.373 21.7 172.923 21.7C173.756 21.7 174.498 21.7917 175.148 21.975C175.798 22.1417 176.381 22.3583 176.898 22.625L176.273 24.475C175.823 24.2083 175.306 23.9917 174.723 23.825C174.156 23.6583 173.523 23.575 172.823 23.575C171.956 23.575 171.298 23.75 170.848 24.1C170.398 24.45 170.173 24.8333 170.173 25.25C170.173 25.65 170.348 25.9917 170.698 26.275C171.048 26.5583 171.731 26.8667 172.748 27.2C174.398 27.75 175.548 28.3583 176.198 29.025C176.848 29.6917 177.173 30.525 177.173 31.525C177.173 32.6917 176.698 33.6167 175.748 34.3C174.815 34.9667 173.556 35.3 171.973 35.3Z" fill="url(#paint2_linear_836_367)"/>
<defs>
<linearGradient id="paint0_linear_836_367" x1="31" y1="2" x2="31" y2="52" gradientUnits="userSpaceOnUse">
<stop stop-color="#3DB7C7"/>
<stop offset="1" stop-color="#2734AC"/>
</linearGradient>
<linearGradient id="paint1_linear_836_367" x1="31.5" y1="0" x2="31.5" y2="53" gradientUnits="userSpaceOnUse">
<stop stop-color="#44F2EB"/>
<stop offset="1" stop-color="#8E7BFF"/>
</linearGradient>
<linearGradient id="paint2_linear_836_367" x1="51" y1="26.5" x2="187" y2="26.5" gradientUnits="userSpaceOnUse">
<stop offset="0.24" stop-color="#28E0F9"/>
<stop offset="1" stop-color="#C3D0E5"/>
</linearGradient>
</defs>
</svg>
