<svg width="36" height="36" viewBox="0 0 36 36" fill="none" xmlns="http://www.w3.org/2000/svg">
<path fill-rule="evenodd" clip-rule="evenodd" d="M0 0H36V36H0V0Z" fill="white"/>
<path fill-rule="evenodd" clip-rule="evenodd" d="M34.6508 14.6475C34.7884 14.6475 34.9228 14.6827 35.0541 14.7532C35.185 14.824 35.2874 14.925 35.3605 15.0567C35.4336 15.188 35.4703 15.3253 35.4703 15.4681C35.4703 15.6095 35.4343 15.7453 35.362 15.8755C35.29 16.0061 35.1887 16.1073 35.0589 16.1793C34.9286 16.2517 34.7929 16.2877 34.6508 16.2877C34.5086 16.2877 34.3725 16.2517 34.2427 16.1793C34.1124 16.1073 34.0111 16.0061 33.9388 15.8755C33.8661 15.7453 33.8301 15.6095 33.8301 15.4681C33.8301 15.3253 33.8668 15.188 33.9403 15.0567C34.0137 14.925 34.1161 14.8241 34.2474 14.7532C34.3785 14.6828 34.5131 14.6475 34.6508 14.6475ZM34.6508 14.7833C34.5354 14.7833 34.4234 14.8129 34.3144 14.8719C34.2052 14.9309 34.12 15.0155 34.0584 15.1249C33.9968 15.2347 33.966 15.349 33.966 15.4681C33.966 15.5861 33.9965 15.6992 34.0569 15.8075C34.1174 15.9159 34.202 16.0005 34.3107 16.0609C34.4194 16.1213 34.5326 16.1518 34.6509 16.1518C34.7689 16.1518 34.8824 16.1213 34.9911 16.0609C35.0998 16.0005 35.184 15.9158 35.2441 15.8075C35.3042 15.6992 35.3343 15.5861 35.3343 15.4681C35.3343 15.349 35.3038 15.2347 35.2427 15.1249C35.1815 15.0155 35.0962 14.9309 34.9867 14.8719C34.8771 14.8129 34.7651 14.7833 34.6508 14.7833ZM34.2909 15.9211V15.0389H34.594C34.6979 15.0389 34.7729 15.0466 34.8193 15.0629C34.8656 15.0792 34.9023 15.1078 34.9302 15.1483C34.9576 15.1891 34.9714 15.2321 34.9714 15.2778C34.9714 15.3423 34.9484 15.3983 34.9024 15.4462C34.8564 15.4941 34.7952 15.5208 34.7191 15.5267C34.7503 15.5397 34.7755 15.5553 34.7941 15.5734C34.8297 15.6083 34.8731 15.6666 34.9247 15.7485L35.0322 15.921H34.8583L34.78 15.7819C34.7184 15.6729 34.6691 15.6042 34.6312 15.5768C34.6053 15.5564 34.567 15.5463 34.517 15.5463H34.4335V15.921H34.2909V15.9211ZM34.4334 15.4247H34.6063C34.6886 15.4247 34.745 15.4121 34.7751 15.3876C34.8051 15.3631 34.8204 15.3305 34.8204 15.2897C34.8204 15.2637 34.8129 15.2403 34.7985 15.2195C34.784 15.1991 34.764 15.1836 34.7384 15.1735C34.7124 15.1631 34.6649 15.1583 34.5952 15.1583H34.4335V15.4247H34.4334Z" fill="black"/>
<path fill-rule="evenodd" clip-rule="evenodd" d="M18.8378 14.5935H18.8652V16.4791H16.9602V14.5935H18.8378ZM10.547 18.5808L14.953 18.8541C15.1361 18.8541 15.286 19.0039 15.286 19.1871C15.286 19.3703 15.1361 19.5202 14.953 19.5202H8.67374V17.0656C8.86672 17.8235 9.53077 18.4435 10.547 18.5808ZM8.67374 21.4161H15.0932C16.0289 21.4161 16.8146 20.7411 16.9877 19.854C17.1404 20.7382 17.9139 21.4161 18.8378 21.4161H22.9394C23.8559 21.4161 24.6243 20.749 24.7857 19.8753V21.4161H31.3616C32.4232 21.4161 33.2917 20.5476 33.2917 19.4861V19.2128C33.2917 18.1512 32.4232 17.2827 31.3616 17.2827L31.001 17.2668C28.9548 17.1768 26.9151 17.0737 24.8715 16.9683C25.0307 17.77 25.7074 18.4378 26.7669 18.5808L31.2214 18.8541C31.4046 18.8541 31.5545 19.004 31.5545 19.1871V19.1872C31.5545 19.3704 31.4046 19.5202 31.2214 19.5202H24.817V16.9655L22.912 16.8672V19.0522C22.912 19.3581 22.6619 19.6083 22.356 19.6083H19.4211C19.1153 19.6083 18.8651 19.3581 18.8651 19.0522V16.6584L16.9601 16.56V18.7262C16.7423 17.9067 15.986 17.3159 15.0931 17.3159L6.70324 16.7674V21.4161H8.51717H8.67374ZM16.6575 16.4799V14.584H10.547C9.64503 14.584 8.88259 15.211 8.67374 16.0508V14.5934H5.02646L3.78346 16.4791H8.61744L16.6575 16.4799ZM5.89861 16.7209L2.88588 21.4161H0.529297L3.70751 16.5944L5.89861 16.7209ZM33.2917 16.4799V14.584H26.767C25.7171 14.584 24.8562 15.4335 24.8374 16.4791L33.2917 16.4799ZM22.912 16.4791V14.5935H22.9394H24.817V16.4791H22.912Z" fill="black"/>
</svg>
