<svg width="30" height="30" viewBox="0 0 30 30" fill="none" xmlns="http://www.w3.org/2000/svg">
<path d="M25.737 3H4.26316C3.56565 3 3 3.62424 3 4.39432V10.739C3 11.5091 3.56565 12.1333 4.26316 12.1333H4.73496V25.6057C4.73496 26.3758 5.30048 27 5.99812 27H24.0015C24.6991 27 25.2647 26.3758 25.2647 25.6057V12.1332H25.7368C26.4344 12.1332 27 11.509 27 10.7389V4.39432C27.0001 3.62424 26.4345 3 25.737 3ZM17.6571 15.446H12.3427C11.7856 15.446 11.3322 14.9456 11.3322 14.3305C11.3322 13.7155 11.7856 13.2151 12.3427 13.2151H17.6571C18.2143 13.2151 18.6677 13.7155 18.6677 14.3305C18.6677 14.9456 18.2143 15.446 17.6571 15.446ZM24.4738 9.34457H24.0016H5.99812H5.52633V5.78864H24.4738V9.34457Z" fill="black"/>
</svg>
