<svg width="31" height="36" viewBox="0 0 31 36" fill="none" xmlns="http://www.w3.org/2000/svg">
<path d="M25.2688 5.50002H21.75V4.90377C21.75 3.85377 20.8963 3 19.8463 3H11.1537C10.1037 3 9.24997 3.85377 9.24997 4.90377V5.50002H5.73123C4.22496 5.50002 3 6.72504 3 8.23125V30.2688C3 31.775 4.22496 33 5.73123 33H25.2688C26.775 33 28 31.775 28 30.2688V8.23125C28 6.72498 26.775 5.50002 25.2688 5.50002ZM11.75 5.50002H19.25V8.00004H11.75V5.50002ZM9.24997 14.25H18C18.69 14.25 19.2499 14.81 19.2499 15.5C19.2499 16.19 18.69 16.75 18 16.75H9.24997C8.55997 16.75 7.99999 16.19 7.99999 15.5C7.99999 14.81 8.55997 14.25 9.24997 14.25ZM21.75 26.75H13C12.31 26.75 11.75 26.19 11.75 25.5C11.75 24.81 12.31 24.25 13 24.25H21.75C22.44 24.25 23 24.81 23 25.5C23 26.19 22.44 26.75 21.75 26.75ZM21.75 21.75H9.24997C8.55997 21.75 7.99999 21.19 7.99999 20.5C7.99999 19.81 8.55997 19.25 9.24997 19.25H21.75C22.44 19.25 23 19.81 23 20.5C23 21.19 22.44 21.75 21.75 21.75Z" fill="black"/>
</svg>
