<svg width="32" height="32" viewBox="0 0 32 32" fill="none" xmlns="http://www.w3.org/2000/svg">
<path d="M31.0001 8.33873C31.0001 11.5324 28.0831 14.1306 24.4978 14.1306C15.8836 13.8393 15.8862 2.83705 24.4978 2.54688C28.0831 2.54688 31.0001 5.1451 31.0001 8.33873ZM27.0987 9.4971C27.0987 8.70999 26.4654 8.04335 25.5934 7.91419L23.6161 7.62112C22.9093 7.49891 23.1993 6.56353 23.8476 6.60117H25.3223C25.5538 6.60117 25.7696 6.7118 25.886 6.89135C26.0661 7.1682 26.4647 7.26376 26.7742 7.10217C27.0857 6.94231 27.1917 6.58785 27.0116 6.311C26.6637 5.77526 26.0161 5.4428 25.3223 5.4428H25.148V4.86362C25.1441 4.10604 23.8508 4.10662 23.8476 4.86362V5.4428C21.614 5.4318 21.127 8.3868 23.4021 8.76327L25.3795 9.05634C26.0863 9.17855 25.7963 10.1139 25.148 10.0763H23.6733C23.4418 10.0763 23.2259 9.96566 23.1095 9.78611C22.9294 9.50926 22.5308 9.4137 22.2213 9.57529C21.9099 9.73515 21.8039 10.0896 21.984 10.3665C22.3319 10.9022 22.9795 11.2347 23.6733 11.2347H23.8476V11.8138C23.8515 12.5714 25.1448 12.5708 25.148 11.8138V11.2347C26.2235 11.2347 27.0987 10.4551 27.0987 9.4971Z" fill="black"/>
<path d="M8.47739 6.76753V14.6816C8.47739 15.2283 7.97038 15.6708 7.34399 15.6708C6.7176 15.6708 6.2106 15.2283 6.2106 14.6816V6.76753C6.2106 6.22081 6.7176 5.77828 7.34399 5.77828C7.97038 5.77828 8.47739 6.22081 8.47739 6.76753ZM11.122 3.79977C10.4956 3.79977 9.98858 4.2423 9.98858 4.78903V14.6816C9.98858 15.2283 10.4956 15.6708 11.122 15.6708C11.7484 15.6708 12.2554 15.2283 12.2554 14.6816V4.78903C12.2554 4.2423 11.7484 3.79977 11.122 3.79977ZM3.56601 7.75679C2.93962 7.75679 2.43262 8.19931 2.43262 8.74604V14.6816C2.43262 15.2283 2.93962 15.6708 3.56601 15.6708C4.1924 15.6708 4.69941 15.2283 4.69941 14.6816V8.74604C4.69941 8.19931 4.1924 7.75679 3.56601 7.75679Z" fill="black"/>
<path d="M13.7284 1.98925C13.7284 1.44253 14.2354 1 14.8617 1C15.4881 1 15.9951 1.44253 15.9951 1.98925V14.6816C15.9951 15.2283 15.4881 15.6708 14.8617 15.6708C14.2354 15.6708 13.7284 15.2283 13.7284 14.6816V1.98925Z" fill="black"/>
<path d="M29.9323 16.3132C29.2887 15.8635 28.45 15.6306 27.5852 15.6632C26.714 15.6938 25.9116 15.9834 25.343 16.4637L20.9173 20.0464C20.9573 20.2477 20.9986 20.449 20.9986 20.658C20.9986 22.655 19.0551 24.3739 16.4779 24.6558L11.1636 25.2272C10.48 25.302 9.84756 24.9377 9.75007 24.4142C9.65258 23.8898 10.1275 23.4047 10.8099 23.3299L16.0117 22.771C17.1816 22.6425 18.1964 21.9983 18.4364 21.1105C18.8063 19.7444 17.449 18.5364 15.7318 18.5364H5.99933C3.23845 18.5364 1 20.2534 1 22.3712V27.1647C1 29.2825 3.23845 30.9995 5.99933 30.9995H11.3261C14.8319 30.9995 18.1752 29.8702 20.5424 27.8876L30.1686 19.8259C31.3534 18.8077 31.2459 17.2316 29.9323 16.3132Z" fill="black"/>
</svg>
