<svg width="51" height="51" viewBox="0 0 51 51" fill="none" xmlns="http://www.w3.org/2000/svg">
<path d="M20.6227 0.5C9.5421 0.5 0.5 9.54211 0.5 20.6227C0.5 31.7033 9.5421 40.7454 20.6227 40.7454C25.1651 40.7454 29.3503 39.2091 32.725 36.6525L45.7218 49.6466C45.9776 49.913 46.2839 50.1257 46.6229 50.2722C46.9619 50.4187 47.3267 50.4961 47.6959 50.4999C48.0652 50.5036 48.4315 50.4337 48.7734 50.2941C49.1153 50.1545 49.4259 49.9481 49.687 49.687C49.9481 49.4259 50.1545 49.1153 50.2941 48.7734C50.4337 48.4315 50.5036 48.0652 50.4999 47.6959C50.4961 47.3267 50.4187 46.9619 50.2722 46.6229C50.1257 46.2839 49.913 45.9776 49.6466 45.7218L36.6525 32.725C39.2091 29.3503 40.7454 25.1651 40.7454 20.6227C40.7454 9.54211 31.7033 0.5 20.6227 0.5ZM20.6227 6.05109C28.7032 6.05109 35.1943 12.5421 35.1943 20.6227C35.1943 24.5025 33.6873 28.0065 31.237 30.6108C30.9985 30.7835 30.7889 30.993 30.6163 31.2315C28.0113 33.685 24.5053 35.1943 20.6227 35.1943C12.5421 35.1943 6.05109 28.7032 6.05109 20.6227C6.05109 12.5421 12.5421 6.05109 20.6227 6.05109Z" fill="url(#paint0_linear_849_368)"/>
<defs>
<linearGradient id="paint0_linear_849_368" x1="7.5" y1="6" x2="50" y2="48" gradientUnits="userSpaceOnUse">
<stop stop-color="#EEDADA"/>
<stop offset="1" stop-color="#586369"/>
</linearGradient>
</defs>
</svg>
