<svg width="50" height="50" viewBox="0 0 50 50" fill="none" xmlns="http://www.w3.org/2000/svg">
<path d="M20.1227 0C9.0421 0 0 9.04211 0 20.1227C0 31.2033 9.0421 40.2454 20.1227 40.2454C24.6651 40.2454 28.8503 38.7091 32.225 36.1525L45.2218 49.1466C45.4776 49.413 45.7839 49.6257 46.1229 49.7722C46.4619 49.9187 46.8267 49.9961 47.1959 49.9999C47.5652 50.0036 47.9315 49.9337 48.2734 49.7941C48.6153 49.6545 48.9259 49.4481 49.187 49.187C49.4481 48.9259 49.6545 48.6153 49.7941 48.2734C49.9337 47.9315 50.0036 47.5652 49.9999 47.1959C49.9961 46.8267 49.9187 46.4619 49.7722 46.1229C49.6257 45.7839 49.413 45.4776 49.1466 45.2218L36.1525 32.225C38.7091 28.8503 40.2454 24.6651 40.2454 20.1227C40.2454 9.04211 31.2033 0 20.1227 0ZM20.1227 5.55109C28.2032 5.55109 34.6943 12.0421 34.6943 20.1227C34.6943 24.0025 33.1873 27.5065 30.737 30.1108C30.4985 30.2835 30.2889 30.493 30.1163 30.7315C27.5113 33.185 24.0053 34.6943 20.1227 34.6943C12.0421 34.6943 5.55109 28.2032 5.55109 20.1227C5.55109 12.0421 12.0421 5.55109 20.1227 5.55109Z" fill="white"/>
</svg>
