<svg width="24" height="24" viewBox="0 0 24 24" fill="none" xmlns="http://www.w3.org/2000/svg">
<path d="M13.571 23.9987C11.631 23.9987 10.728 22.8247 9.93102 21.7887C9.35102 21.0347 8.75102 20.2547 7.67402 19.6967C6.69102 19.1877 5.44402 19.0937 4.23702 19.0027C2.44902 18.8677 -0.000976562 18.6837 -0.000976562 16.1897C-0.000976562 14.7897 0.835023 13.8027 1.57302 12.9327C2.23702 12.1487 2.86502 11.4097 3.00802 10.3637C3.12402 9.51366 2.56202 8.32166 2.01902 7.16966C1.17502 5.38166 0.125023 3.15666 1.97102 1.77266C3.44502 0.66566 5.28002 1.41366 7.05302 2.13666C8.22802 2.61466 9.45002 3.11266 10.39 3.00566C11.456 2.88866 12.636 2.11066 13.676 1.42466C15.032 0.52966 16.316 -0.31034 17.573 0.10566C19.016 0.58666 19.085 2.56766 19.158 4.66466C19.193 5.65966 19.252 7.32466 19.556 7.66966C19.856 8.00666 20.367 8.38966 20.908 8.79466C22.285 9.82666 23.999 11.1107 23.999 13.0457C23.999 14.9447 21.754 15.7007 19.773 16.3667C18.918 16.6547 17.746 17.0487 17.465 17.3697C17.161 17.7187 16.839 18.8437 16.58 19.7477C15.981 21.8367 15.363 23.9977 13.569 23.9977L13.571 23.9987Z" fill="#FAFF06"/>
</svg>
