<svg width="79" height="79" viewBox="0 0 79 79" fill="none" xmlns="http://www.w3.org/2000/svg">
<path d="M78.125 39.0625C78.125 60.6328 60.6328 78.125 39.0625 78.125C17.4922 78.125 0 60.6328 0 39.0625C0 17.4922 17.4922 0 39.0625 0C60.6328 0 78.125 17.4922 78.125 39.0625Z" fill="url(#paint0_linear_871_373)"/>
<path d="M55.7736 24.5826L32.0314 48.3529L23.8518 40.1967C22.3252 38.6748 19.8549 38.6764 18.3314 40.2014C16.8049 41.7279 16.8064 44.2045 18.3346 45.7295L29.2752 56.6435C30.8018 58.167 33.2736 58.1639 34.7971 56.6389L61.3002 30.1045C62.8236 28.5779 62.8236 26.1061 61.2986 24.5811C59.7721 23.0561 57.2986 23.0561 55.7736 24.5826Z" fill="white"/>
<defs>
<linearGradient id="paint0_linear_871_373" x1="39.0625" y1="0" x2="39.0625" y2="78.125" gradientUnits="userSpaceOnUse">
<stop stop-color="#82E4E7"/>
<stop offset="1" stop-color="#16EE7F"/>
</linearGradient>
</defs>
</svg>
