<svg width="55" height="50" viewBox="0 0 55 50" fill="none" xmlns="http://www.w3.org/2000/svg">
<path d="M26.3537 32.1429V13.0952C26.3537 12.4286 26.8581 11.9048 27.5 11.9048C28.1419 11.9048 28.6463 12.4286 28.6463 13.0952V32.1429C28.6463 32.8095 28.1419 33.3333 27.5 33.3333C26.8581 33.3333 26.3537 32.8095 26.3537 32.1429ZM27.5 38.0952C26.2391 38.0952 25.2075 39.1667 25.2075 40.4762C25.2075 41.7857 26.2391 42.8571 27.5 42.8571C28.7609 42.8571 29.7925 41.7857 29.7925 40.4762C29.7925 39.1667 28.7609 38.0952 27.5 38.0952ZM54.1163 45.4048C52.6491 48.3333 49.5542 50 45.611 50H9.38898C5.46874 50 2.3509 48.3333 0.883676 45.4048C-0.606472 42.4524 -0.193815 38.5714 1.98409 35.3095L21.3102 3.40476C22.7315 1.2619 25.047 0 27.5 0C29.953 0 32.2685 1.2619 33.6669 3.35714L53.0159 35.3333C55.1938 38.5952 55.6065 42.4524 54.1163 45.4048ZM51.1131 36.6667C51.1131 36.6667 51.1131 36.6429 51.0902 36.619L31.7641 4.66667C30.8012 3.21429 29.2423 2.38095 27.5 2.38095C25.7577 2.38095 24.1987 3.2381 23.213 4.71429L3.90982 36.619C2.19042 39.1905 1.82361 42.119 2.92403 44.3095C4.00152 46.4524 6.29406 47.619 9.38898 47.619H45.6339C48.7289 47.619 51.0214 46.4524 52.0989 44.3095C53.1993 42.1429 52.8325 39.2143 51.136 36.6667H51.1131Z" fill="#FFA500FF"/>
</svg>
